<?xml version="1.0" encoding="UTF-8" standalone="no"?><!DOCTYPE svg PUBLIC "-//W3C//DTD SVG 1.1//EN" "http://www.w3.org/Graphics/SVG/1.1/DTD/svg11.dtd"><svg width="100%" height="100%" viewBox="0 0 2048 2048" version="1.1" xmlns="http://www.w3.org/2000/svg" xmlns:xlink="http://www.w3.org/1999/xlink" xml:space="preserve" xmlns:serif="http://www.serif.com/" style="fill-rule:evenodd;clip-rule:evenodd;stroke-linejoin:round;stroke-miterlimit:2;"><g id="Background"><path d="M1166.946,1112.219c1.467,-0.036 1.077,-1.081 2.577,-1.118c0.204,-0.005 1.453,-0.036 2.35,0.997c1.153,1.328 0.546,1.433 0.198,8.481c-0.321,6.505 -0.095,115.704 -0.174,267.583c-0.029,56.087 1.919,59.618 -5.384,60.564c-3.849,0.498 -427.33,0.093 -464.489,0.057c-172.78,-0.166 -388.17,0.321 -391.387,-0.415c-6.322,-1.447 -4.562,-12.74 -4.542,-21.958c0.19,-90.581 -0.851,-91.902 1.891,-94.146c3.205,-2.623 112.384,-0.333 120.764,-1.457c8.829,-1.185 5.098,-8.192 5.579,-69.083c0.076,-9.6 5.939,-12.69 31.41,-39.238c31.448,-32.778 359.407,-374.61 393.381,-409.446c8.491,-8.706 11.167,-2.023 14.197,0.972c46.28,45.742 104.375,106.637 113.331,116.025c4.477,4.693 54.086,56.693 56.551,58.1c3.795,2.166 4.75,1.336 20.106,-14.946c54.287,-57.562 55.05,-56.624 109.415,-114.083c92.21,-97.46 189.229,-197.557 303.299,-317.138c29.288,-30.703 35.762,-32.479 27.774,-40.933c-20.023,-21.193 -20.977,-20.07 -41.469,-40.784c-27.62,-27.919 -34.705,-32.356 -25.617,-34.634c9.918,-2.486 87.662,-21.973 124.133,-30.449c87.093,-20.242 174.121,-44.971 179.717,-42.946c2.963,1.073 0.058,14.457 -0.208,15.683c-10.063,46.35 -46.2,233.121 -54.403,273.16c-5.214,25.449 -6.368,31.977 -11.083,27.543c-1.497,-1.408 -79.513,-78.906 -79.683,-79.007c-3.051,-1.815 -4.424,-1.512 -33.348,29.272c-97.78,104.068 -281.364,292.849 -365.63,381.328c-10.098,10.602 -86.536,90.864 -126.575,132.191c-19.421,20.046 -21.437,26.469 -29.721,17.858c-28.169,-29.281 -27.98,-29.244 -56.373,-58.314c-105.604,-108.122 -104.823,-108.773 -114.542,-117.606c-3.551,-3.228 -7.274,1.498 -13.833,8.28c-58.632,60.625 -57.927,61.109 -63.047,66.343c-51.883,53.027 -259.05,270.813 -261.941,273.28c-0.56,0.478 -10.986,9.377 -1.51,9.077c38.445,-1.219 38.335,0.553 67.501,-0.236c8.94,-0.242 8.398,-2.613 47.006,-42.932c201.163,-210.075 200.034,-211.163 218.35,-228.601c6.771,-6.446 8.113,-0.128 38.514,30.664c70.177,71.079 69.749,71.347 139.539,142.709c9.209,9.417 10.402,1.477 19.707,-7.976c5.448,-5.535 99.162,-102.727 107.666,-112.72Z"/><path d="M1069.568,882.401c-20.836,21.406 -22.23,26.711 -28.963,20.156c-15.791,-15.374 -149.436,-153.548 -162.39,-166.94c-8.621,-8.913 -10.676,-13.941 -19.316,-5.094c-34.899,35.735 -33.838,36.531 -69.058,72.102c-11.652,11.768 -288.203,298.783 -313.25,324.777c-37.647,39.071 -37.942,42.926 -41.634,39.723c-0.547,-0.475 -0.65,-0.667 -0.789,-108.29c-0.053,-40.694 -0.648,-501.835 0.425,-508.674c1.254,-7.991 5.558,-4.918 279.918,-148.611c134.612,-70.502 135.547,-68.404 270.009,-139.151c56.34,-29.643 59.348,-31.777 60.975,-26.706c0.308,0.961 -0.038,189.198 -0.068,205.65c-0.023,12.6 -2.67,15.409 10.147,22.189c9.228,4.882 110.871,58.652 114.484,62.624c2.706,2.975 2.127,3.714 2.329,218.053c0.028,30.047 0.776,31.059 -5.966,38.044c-32.284,33.383 -64.569,66.765 -96.853,100.148Z"/><path d="M1172.192,1105.746c8.04,-6.738 12.816,-10.742 91.829,-93.604c21.277,-22.314 21.584,-23.146 29.045,-23.327c31.819,-0.773 75.972,0.908 78.802,-1.279c4.837,-3.739 -1.826,-82.154 3.734,-90.26c1.754,-2.557 99.885,-104.347 109.249,-114.205c12.586,-13.251 12.917,-12.77 28.891,-29.881c0.03,-0.032 9.986,-13.655 9.745,-0.303c-0.802,44.462 -0.576,44.392 -0.08,555.869c0.015,15.16 -4.497,21.92 10.743,22.25c21.436,0.464 114.887,-1.109 117.703,1.188c2.792,2.277 1.781,4.374 2.005,100.069c0.026,11.221 3.245,16.175 -7.971,16.455c-48.686,1.215 -238.045,0.143 -258.744,0.026c-9.526,-0.054 -13.282,1.852 -13.594,-7.671c-0.568,-17.331 1.007,-330.105 -0.929,-332.374c-1.932,-2.264 -2.529,-2.319 -111.915,-2.36c-78.389,-0.029 -78.455,0.224 -82.331,1.312c-5.294,1.487 -4.539,-1.399 -6.184,-1.906Z"/><path d="M1701.555,1609.922c12.027,0.024 22.659,-2.794 22.742,7.596c0.122,15.265 1.474,184.888 -0.173,190.824c-1.588,5.724 -30.017,4.783 -32.807,1.436c-2.507,-3.007 1.453,-11.855 -4.627,-11.285c-2.152,0.202 -13.745,17.013 -49.768,15.199c-92.194,-4.642 -90.006,-151.733 8.786,-149.759c12.923,0.258 30.622,6.126 37.481,13.594c8.422,9.17 5.711,-3.129 5.771,-21.786c0.137,-42.214 -0.735,-43.814 3.299,-45.219l9.296,-0.602Zm-95.198,140.107c1.33,4.851 3.966,22.524 24.84,31.619c37.246,16.228 76.109,-28.55 50.11,-70.264c-17.24,-27.66 -83.014,-25.952 -74.95,38.645Z"/><path d="M428.578,1665.856c1.622,-0.212 15.214,-1.992 20.359,-1.884c103.746,2.183 98.349,141.325 11.633,149.327c-105.677,9.752 -122.933,-124.605 -31.993,-147.443Zm-21.928,63.207c-0.206,3.509 -7.075,36.08 24.023,51.522c35.989,17.87 76.605,-25.395 53.928,-66.252c-7.688,-13.852 -24.933,-22.634 -41.533,-20.249c-32.12,4.615 -35.239,30.261 -36.418,34.98Z"/><path d="M171.356,1726.306c0.06,-100.881 -0.252,-100.996 0.639,-103.188c0.906,-2.227 1.866,-4.589 29.939,-2.603c7.569,0.535 5.781,4.255 5.861,44.046c0.056,27.489 -3.046,33.26 8.838,33.274c85.246,0.105 85.747,-0.078 86.961,-1.855c2.73,-3.996 -1.5,-70.843 2.415,-74.08c2.967,-2.453 29.905,-1.361 31.01,-0.946c3.248,1.221 3.465,2.358 3.395,58.312c-0.153,122.17 0.463,126.81 -0.377,129.335c-1.947,5.848 -32.282,3.946 -34.163,1.981c-3.036,-3.173 -0.756,-59.764 -1.376,-75.422c-0.276,-6.97 -3.699,-5.965 -46.69,-5.995c-46.654,-0.033 -46.921,0.336 -48.291,1.712c-3.782,3.801 -0.251,71.88 -1.937,77.683c-1.939,6.674 -33.519,3.358 -34.595,2.466c-2.072,-1.719 -1.54,-2.342 -1.628,-84.72Z"/><path d="M1281.257,1665.59c13.353,-1.515 13.266,-1.729 17.452,-1.704c77.084,0.465 79.079,80.242 72.566,84.697c-3.711,2.539 -98.322,0.556 -107.849,1.212c-11.888,0.818 6.285,30.404 29.605,34.214c39.528,6.458 46.724,-21.038 56.042,-11.01c1.112,1.196 12.754,13.726 13.429,15.376c2.488,6.078 -20.732,25.107 -54.984,25.604c-106.244,1.541 -110.555,-130.431 -26.261,-148.389Zm17.46,27.15c-3.05,0.196 -21.338,-1.372 -34.125,16.727c-11.382,16.111 -2.515,16.801 -1.164,16.879c4.551,0.261 4.486,-0.441 64.695,0.153c4.068,0.04 14.851,2.101 8.048,-11.589c-11.593,-23.332 -35.068,-22.001 -37.454,-22.17Z"/><path d="M704.988,1665.868c18.832,-2.326 49.301,-6.823 75.618,22.75c19.458,21.865 19.317,57.555 14.702,60.25c-3.348,1.955 -100.588,0.425 -108.161,1.114c-9.144,0.832 3.85,21.829 15.327,28.133c36.544,20.074 63.237,-8.323 67,-8.124c1.837,0.097 3.29,0.174 16.666,15.847c9.677,11.34 -56.373,52.136 -112.722,9.818c-34.336,-25.787 -45.397,-107.83 31.57,-129.789Zm23.394,26.893c-1.883,0.029 -26.47,-4.02 -40.467,19.302c-10.735,17.887 3.816,14.3 8.016,14.242c61.796,-0.862 69.86,4.112 67.086,-5.752c-6.692,-23.792 -31.118,-27.289 -34.635,-27.792Z"/><path d="M1407.527,1665.889c13.268,0.451 21.27,-0.244 23.926,0.897c5.507,2.366 -1.642,21.456 8.38,12.441c30.363,-27.314 89.289,-18.944 100.545,26.354c4.707,18.942 2.123,102.646 2.009,102.892c-2.213,4.821 -30.529,3.807 -33.011,1.116c-2.658,-2.882 -0.501,-44.28 -1.2,-77.425c-0.703,-33.299 -26.645,-41.069 -44.908,-35.641c-32.833,9.757 -28.039,38.354 -28.102,91.533c-0.02,17.075 3.113,24.189 -10.021,24.139c-14.148,-0.054 -25.219,2.105 -25.346,-6.53c-0.156,-10.581 -1.246,-84.253 0.028,-132.277c0.24,-9.034 6.294,-7.173 7.7,-7.5Z"/><path d="M1795.86,1665.741c5.599,-0.68 44.885,-5.45 70.023,8.209c6.798,3.694 3.643,7.461 -3.455,22.564c-3.621,7.703 -5.802,6.325 -13.647,2.869c-24.944,-10.988 -58.529,-8.268 -61.796,6.382c-6.804,30.508 91.476,7.555 89.64,61.726c-2.382,70.304 -120.754,43.605 -125.801,29.783c-1.116,-3.056 3.697,-13.723 4.205,-14.848c2.658,-5.89 1.75,-13.054 14.529,-6.878c28.987,14.007 61.193,13.361 69.882,0.551c13.286,-19.588 -33.637,-22.798 -46.911,-25.502c-54.339,-11.068 -39.945,-53.607 -34.19,-61.902c14.327,-20.65 36.963,-22.812 37.52,-22.954Z"/><path d="M1112.194,1632.209c-0.026,4.075 1.67,17.774 -4.265,18.876c-9.476,1.76 -55.098,-1.514 -58.346,2.374c-1.627,1.948 -0.869,2.337 -1.27,105.193c-0.188,48.084 1.772,52.879 -5.362,53.349c-28.742,1.894 -29.59,-0.664 -30.358,-2.98c-0.327,-0.987 -0.183,-0.982 -0.332,-91.528c-0.102,-61.953 1.265,-64.591 -4.396,-65.805c-3.659,-0.785 -53.074,1.47 -56.317,-1.599c-2.144,-2.029 -3.446,-25.964 0.588,-28.995c1.406,-1.056 15.384,-0.806 134.87,-0.797c8.364,0.001 20.898,-0.418 22.985,0.949c1.656,1.085 1.939,3.354 2.202,10.961Z"/><path d="M622.43,1666.208c7.363,0.385 9.679,-0.197 9.852,7.126c0.292,12.329 1.973,21.016 -6.895,21.252c-16.11,0.428 -32.23,-2.422 -32.58,5.235c-0.223,4.86 0.191,54.126 0.231,58.833c0.037,4.344 -2.097,26.427 20.561,26.434c11.22,0.004 18.27,-8.428 21.269,-0.279c5.799,15.755 9.409,21.276 -6.732,26.185c-21.867,6.65 -53.555,2.428 -64.66,-19.919c-13.188,-26.54 1.291,-93.097 -9.025,-95.912c-8.711,-2.377 -20.505,6.315 -20.027,-10.014c0.207,-7.058 -3.078,-18.545 5.539,-18.887c5.968,-0.237 5.885,0.199 11.839,-0.009c14.452,-0.504 -0.937,-33.894 11.727,-34.79c27.682,-1.958 28.589,1.502 29.185,3.78c1.471,5.615 -1.891,28.24 2.793,30.114c2.426,0.971 22.959,0.845 26.922,0.851Z"/><path d="M851.773,1609.942c2.91,0.517 8.381,-1.573 8.406,7.574c0.041,15.273 0.498,187.669 -0.355,190.907c-1.195,4.538 -11.392,3.775 -25.692,3.718c-12.543,-0.05 -9.173,-7.778 -9.142,-24.079c0.335,-174.32 -0.599,-175.83 2.783,-177.255c2.835,-1.194 19.409,-0.868 23.999,-0.865Z"/><path d="M1160.602,1682.121c0.995,0.144 1.99,0.288 2.985,0.432c7.873,-8.441 11.21,-10.195 12.374,-10.807c2.3,-1.209 18.906,-9.94 31.64,-7.36c2.127,0.431 5.843,1.184 4.115,26.818c-0.575,8.523 -14.543,3.377 -27.352,9.352c-23.204,10.824 -22.817,32.527 -23.005,46.353c-0.811,59.483 2.993,64.747 -6.67,65.298c-27.355,1.559 -28.065,-1.558 -28.577,-3.806c-1.131,-4.97 -0.282,-124.206 -0.205,-135.006c0.059,-8.245 2.818,-7.493 11.095,-7.553c12.598,-0.093 23.597,-2.486 23.136,7.55c-0.203,4.426 0.23,4.324 0.464,8.729Z"/></g></svg>