<?xml version="1.0" encoding="UTF-8" standalone="no"?><!DOCTYPE svg PUBLIC "-//W3C//DTD SVG 1.1//EN" "http://www.w3.org/Graphics/SVG/1.1/DTD/svg11.dtd"><svg width="100%" height="100%" viewBox="0 0 2048 2048" version="1.1" xmlns="http://www.w3.org/2000/svg" xmlns:xlink="http://www.w3.org/1999/xlink" xml:space="preserve" xmlns:serif="http://www.serif.com/" style="fill-rule:evenodd;clip-rule:evenodd;stroke-linejoin:round;stroke-miterlimit:2;"><g id="Background"><path d="M1701.555,921.904c12.027,0.024 22.659,-2.794 22.742,7.596c0.122,15.265 1.474,184.888 -0.173,190.824c-1.588,5.724 -30.017,4.783 -32.807,1.436c-2.507,-3.007 1.453,-11.855 -4.627,-11.285c-2.152,0.202 -13.745,17.013 -49.768,15.199c-92.194,-4.642 -90.006,-151.733 8.786,-149.759c12.923,0.258 30.622,6.126 37.481,13.594c8.422,9.17 5.711,-3.129 5.771,-21.786c0.137,-42.214 -0.735,-43.814 3.299,-45.219l9.296,-0.602Zm-95.198,140.107c1.33,4.851 3.966,22.524 24.84,31.619c37.246,16.228 76.109,-28.55 50.11,-70.264c-17.24,-27.66 -83.014,-25.952 -74.95,38.645Z"/><path d="M428.578,977.838c1.622,-0.212 15.214,-1.992 20.359,-1.884c103.746,2.183 98.349,141.325 11.633,149.327c-105.677,9.752 -122.933,-124.605 -31.993,-147.443Zm-21.928,63.207c-0.206,3.509 -7.075,36.08 24.023,51.522c35.989,17.87 76.605,-25.395 53.928,-66.252c-7.688,-13.852 -24.933,-22.634 -41.533,-20.249c-32.12,4.615 -35.239,30.261 -36.418,34.98Z"/><path d="M171.356,1038.288c0.06,-100.881 -0.252,-100.996 0.639,-103.188c0.906,-2.227 1.866,-4.589 29.939,-2.603c7.569,0.535 5.781,4.255 5.861,44.046c0.056,27.489 -3.046,33.26 8.838,33.274c85.246,0.105 85.747,-0.078 86.961,-1.855c2.73,-3.996 -1.5,-70.843 2.415,-74.08c2.967,-2.453 29.905,-1.361 31.01,-0.946c3.248,1.221 3.465,2.358 3.395,58.312c-0.153,122.17 0.463,126.81 -0.377,129.335c-1.947,5.848 -32.282,3.946 -34.163,1.981c-3.036,-3.173 -0.756,-59.764 -1.376,-75.422c-0.276,-6.97 -3.699,-5.965 -46.69,-5.995c-46.654,-0.033 -46.921,0.336 -48.291,1.712c-3.782,3.801 -0.251,71.88 -1.937,77.683c-1.939,6.674 -33.519,3.358 -34.595,2.466c-2.072,-1.719 -1.54,-2.342 -1.628,-84.72Z"/><path d="M1281.257,977.572c13.353,-1.515 13.266,-1.729 17.452,-1.704c77.084,0.465 79.079,80.242 72.566,84.697c-3.711,2.539 -98.322,0.556 -107.849,1.212c-11.888,0.818 6.285,30.404 29.605,34.214c39.528,6.458 46.724,-21.038 56.042,-11.01c1.112,1.196 12.754,13.726 13.429,15.376c2.488,6.078 -20.732,25.107 -54.984,25.604c-106.244,1.541 -110.555,-130.431 -26.261,-148.389Zm17.46,27.15c-3.05,0.196 -21.338,-1.372 -34.125,16.727c-11.382,16.111 -2.515,16.801 -1.164,16.879c4.551,0.261 4.486,-0.441 64.695,0.153c4.068,0.04 14.851,2.101 8.048,-11.589c-11.593,-23.332 -35.068,-22.001 -37.454,-22.17Z"/><path d="M704.988,977.85c18.832,-2.326 49.301,-6.823 75.618,22.75c19.458,21.865 19.317,57.555 14.702,60.25c-3.348,1.955 -100.588,0.425 -108.161,1.114c-9.144,0.832 3.85,21.829 15.327,28.133c36.544,20.074 63.237,-8.323 67,-8.124c1.837,0.097 3.29,0.174 16.666,15.847c9.677,11.34 -56.373,52.136 -112.722,9.818c-34.336,-25.787 -45.397,-107.83 31.57,-129.789Zm23.394,26.893c-1.883,0.029 -26.47,-4.02 -40.467,19.302c-10.735,17.887 3.816,14.3 8.016,14.242c61.796,-0.862 69.86,4.112 67.086,-5.752c-6.692,-23.792 -31.118,-27.289 -34.635,-27.792Z"/><path d="M1407.527,977.871c13.268,0.451 21.27,-0.244 23.926,0.897c5.507,2.366 -1.642,21.456 8.38,12.441c30.363,-27.314 89.289,-18.944 100.545,26.354c4.707,18.942 2.123,102.646 2.009,102.892c-2.213,4.821 -30.529,3.807 -33.011,1.116c-2.658,-2.882 -0.501,-44.28 -1.2,-77.425c-0.703,-33.299 -26.645,-41.069 -44.908,-35.641c-32.833,9.757 -28.039,38.354 -28.102,91.533c-0.02,17.075 3.113,24.189 -10.021,24.139c-14.148,-0.054 -25.219,2.105 -25.346,-6.53c-0.156,-10.581 -1.246,-84.253 0.028,-132.277c0.24,-9.034 6.294,-7.173 7.7,-7.5Z"/><path d="M1795.86,977.723c5.599,-0.68 44.885,-5.45 70.023,8.209c6.798,3.694 3.643,7.461 -3.455,22.564c-3.621,7.703 -5.802,6.325 -13.647,2.869c-24.944,-10.988 -58.529,-8.268 -61.796,6.382c-6.804,30.508 91.476,7.555 89.64,61.726c-2.382,70.304 -120.754,43.605 -125.801,29.783c-1.116,-3.056 3.697,-13.723 4.205,-14.848c2.658,-5.89 1.75,-13.054 14.529,-6.878c28.987,14.007 61.193,13.361 69.882,0.551c13.286,-19.588 -33.637,-22.798 -46.911,-25.502c-54.339,-11.068 -39.945,-53.607 -34.19,-61.902c14.327,-20.65 36.963,-22.812 37.52,-22.954Z"/><path d="M1112.194,944.191c-0.026,4.075 1.67,17.774 -4.265,18.876c-9.476,1.76 -55.098,-1.514 -58.346,2.374c-1.627,1.948 -0.869,2.337 -1.27,105.193c-0.188,48.084 1.772,52.879 -5.362,53.349c-28.742,1.894 -29.59,-0.664 -30.358,-2.98c-0.327,-0.987 -0.183,-0.982 -0.332,-91.528c-0.102,-61.953 1.265,-64.591 -4.396,-65.805c-3.659,-0.785 -53.074,1.47 -56.317,-1.599c-2.144,-2.029 -3.446,-25.964 0.588,-28.995c1.406,-1.056 15.384,-0.806 134.87,-0.797c8.364,0.001 20.898,-0.418 22.985,0.949c1.656,1.085 1.939,3.354 2.202,10.961Z"/><path d="M622.43,978.19c7.363,0.385 9.679,-0.197 9.852,7.126c0.292,12.329 1.973,21.016 -6.895,21.252c-16.11,0.428 -32.23,-2.422 -32.58,5.235c-0.223,4.86 0.191,54.126 0.231,58.833c0.037,4.344 -2.097,26.427 20.561,26.434c11.22,0.004 18.27,-8.428 21.269,-0.279c5.799,15.755 9.409,21.276 -6.732,26.185c-21.867,6.65 -53.555,2.428 -64.66,-19.919c-13.188,-26.54 1.291,-93.097 -9.025,-95.912c-8.711,-2.377 -20.505,6.315 -20.027,-10.014c0.207,-7.058 -3.078,-18.545 5.539,-18.887c5.968,-0.237 5.885,0.199 11.839,-0.009c14.452,-0.504 -0.937,-33.894 11.727,-34.79c27.682,-1.958 28.589,1.502 29.185,3.78c1.471,5.615 -1.891,28.24 2.793,30.114c2.426,0.971 22.959,0.845 26.922,0.851Z"/><path d="M851.773,921.924c2.91,0.517 8.381,-1.573 8.406,7.574c0.041,15.273 0.498,187.669 -0.355,190.907c-1.195,4.538 -11.392,3.775 -25.692,3.718c-12.543,-0.05 -9.173,-7.778 -9.142,-24.079c0.335,-174.32 -0.599,-175.83 2.783,-177.255c2.835,-1.194 19.409,-0.868 23.999,-0.865Z"/><path d="M1160.602,994.103c0.995,0.144 1.99,0.288 2.985,0.432c7.873,-8.441 11.21,-10.195 12.374,-10.807c2.3,-1.209 18.906,-9.94 31.64,-7.36c2.127,0.431 5.843,1.184 4.115,26.818c-0.575,8.523 -14.543,3.377 -27.352,9.352c-23.204,10.824 -22.817,32.527 -23.005,46.353c-0.811,59.483 2.993,64.747 -6.67,65.298c-27.355,1.559 -28.065,-1.558 -28.577,-3.806c-1.131,-4.97 -0.282,-124.206 -0.205,-135.006c0.059,-8.245 2.818,-7.493 11.095,-7.553c12.598,-0.093 23.597,-2.486 23.136,7.55c-0.203,4.426 0.23,4.324 0.464,8.729Z"/></g></svg>